<svg width="21" height="21" viewBox="0 0 21 21" fill="none" xmlns="http://www.w3.org/2000/svg">
<path d="M10.5 0.8C4.9608 0.8 0.5 5.2608 0.5 10.8C0.5 15.188 3.4008 18.882 7.4108 20.3C7.9108 20.4 8.1108 20.1 8.1108 19.8C8.1108 19.6 8.1108 18.9 8.1108 17.9C5.3108 18.5 4.8108 16.9 4.8108 16.9C4.4108 15.9 3.8108 15.6 3.8108 15.6C2.9108 15 3.9108 15.1 3.9108 15.1C4.9108 15.2 5.4108 16.1 5.4108 16.1C6.2108 17.3 7.5108 16.9 8.0108 16.7C8.1108 16.2 8.4108 15.9 8.7108 15.7C6.3108 15.5 3.8108 14.6 3.8108 10.4C3.8108 9.3 4.2108 8.4 4.9108 7.7C4.8108 7.5 4.4108 6.5 5.0108 5C5.9108 4.8 7.1108 5.7 7.1108 5.7C7.9108 5.5 8.8108 5.5 9.7108 5.5C10.6108 5.5 11.5108 5.5 12.3108 5.7C13.1108 5.7 14.3108 4.8 15.2108 5C15.8108 6.5 15.4108 7.5 15.3108 7.7C16.0108 8.4 16.4108 9.3 16.4108 10.4C16.4108 14.6 13.9108 15.5 11.5108 15.7C11.9108 16 12.2108 16.5 12.2108 17.2C12.2108 18.4 12.2108 19.4 12.2108 19.8C12.2108 20.1 12.4108 20.4 12.9108 20.3C16.9208 18.882 19.8208 15.188 19.8208 10.8C19.8208 5.2608 15.36 0.8 10.5 0.8Z" fill="white"/>
</svg>
