<svg width="21" height="21" viewBox="0 0 21 21" fill="none" xmlns="http://www.w3.org/2000/svg">
<path d="M10.5 0C4.701 0 0 4.701 0 10.5C0 16.299 4.701 21 10.5 21C16.299 21 21 16.299 21 10.5C21 4.701 16.299 0 10.5 0ZM6.5 15.642H4.192V8.177H6.5V15.642ZM5.346 7.256C4.596 7.256 4 6.66 4 5.91C4 5.16 4.596 4.564 5.346 4.564C6.096 4.564 6.692 5.16 6.692 5.91C6.692 6.66 6.096 7.256 5.346 7.256ZM17 15.642H14.692V11.572C14.692 10.404 13.576 9.582 12.5 9.582C11.424 9.582 10.308 10.404 10.308 11.572V15.642H8V8.177H10.308V9.17C10.85 8.48 11.796 8 12.818 8C14.67 8 16.308 9.64 16.308 11.572V15.642H17Z" fill="white"/>
</svg>
